<?xml version="1.0" encoding="iso-8859-1"?>
<!-- Generator: Adobe Illustrator 19.0.0, SVG Export Plug-In . SVG Version: 6.00 Build 0)  -->
<svg xmlns="http://www.w3.org/2000/svg" xmlns:xlink="http://www.w3.org/1999/xlink" version="1.1" id="Capa_1" x="0px" y="0px" viewBox="0 0 508.284 508.284" style="enable-background:new 0 0 508.284 508.284;" xml:space="preserve" width="512" height="512">
<g>
	<g>
		<rect x="116.784" y="31.783" style="fill:#9B8CC8;" width="320" height="320"/>
		<polygon style="fill:#8A79BF;" points="140.784,327.783 140.784,31.783 116.784,31.783 116.784,351.783 436.784,351.783     436.784,327.783   "/>
	</g>
	<g>
		<path d="M444.284,351.783v-128c0-4.143-3.357-7.5-7.5-7.5s-7.5,3.357-7.5,7.5v120.5H134.486l-8.919-5.149    c-0.416-0.24-0.846-0.431-1.283-0.584v-61.767c0-4.143-3.358-7.5-7.5-7.5s-7.5,3.357-7.5,7.5v75c0,4.143,3.358,7.5,7.5,7.5    h205.573l-4.223,7.314c-1.884,3.262-0.992,7.554,2.045,9.787c3.557,2.616,8.742,1.53,10.946-2.287l6-10.393    c0.804-1.392,1.105-2.934,0.969-4.422h98.69C440.926,359.283,444.284,355.926,444.284,351.783z"/>
		<path d="M143.251,44.503c-3.587-2.07-8.174-0.843-10.245,2.745l-6,10.393c-2.071,3.587-0.842,8.174,2.745,10.245    c1.181,0.682,2.471,1.006,3.743,1.006c2.592,0,5.113-1.345,6.502-3.751l6-10.393C148.068,51.161,146.839,46.574,143.251,44.503z"/>
		<path d="M267.674,68.996c1.181,0.682,2.471,1.006,3.743,1.006c2.592,0,5.112-1.345,6.502-3.751    c2.071-3.587,0.842-8.174-2.745-10.245l-10.392-6c-3.586-2.07-8.174-0.843-10.245,2.745c-2.071,3.587-0.842,8.174,2.745,10.245    L267.674,68.996z"/>
		<path d="M346.134,318.1l-6,10.393c-2.071,3.587-0.842,8.174,2.745,10.245c1.182,0.682,2.471,1.006,3.743,1.006    c2.592,0,5.113-1.345,6.502-3.751l6-10.393c2.071-3.587,0.842-8.174-2.745-10.245C352.79,313.283,348.203,314.512,346.134,318.1z"/>
		<path d="M305.78,90.996c1.182,0.682,2.471,1.006,3.743,1.006c2.592,0,5.113-1.345,6.502-3.751    c2.071-3.587,0.842-8.174-2.745-10.245l-10.393-6c-3.589-2.071-8.175-0.843-10.245,2.745c-2.071,3.587-0.842,8.174,2.745,10.245    L305.78,90.996z"/>
		<path d="M351.385,100.006l-10.393-6c-3.59-2.07-8.175-0.843-10.245,2.745c-2.071,3.587-0.842,8.174,2.745,10.245l10.393,6    c1.182,0.682,2.471,1.006,3.743,1.006c2.592,0,5.113-1.345,6.502-3.751C356.202,106.664,354.972,102.077,351.385,100.006z"/>
		<path d="M201.777,383.134c-3.588-2.07-8.174-0.843-10.245,2.745c-2.071,3.587-0.842,8.174,2.745,10.245l10.392,6    c1.181,0.682,2.471,1.006,3.743,1.006c2.592,0,5.113-1.345,6.502-3.751c2.071-3.587,0.842-8.174-2.745-10.245L201.777,383.134z"/>
		<path d="M302.134,394.311l-6,10.392c-1.884,3.262-0.992,7.554,2.045,9.787c3.558,2.617,8.741,1.53,10.946-2.287l6-10.392    c2.071-3.587,0.842-8.174-2.745-10.245C308.793,389.495,304.206,390.723,302.134,394.311z"/>
		<path d="M434.134,165.68l-6,10.393c-2.071,3.587-0.842,8.174,2.745,10.245c1.182,0.682,2.471,1.006,3.743,1.006    c2.592,0,5.113-1.345,6.502-3.751l6-10.393c2.071-3.587,0.842-8.174-2.745-10.245C440.79,160.863,436.203,162.092,434.134,165.68z    "/>
		<path d="M163.672,361.134c-3.587-2.071-8.174-0.843-10.245,2.745c-2.071,3.587-0.842,8.174,2.745,10.245l10.392,6    c1.181,0.682,2.471,1.006,3.743,1.006c2.592,0,5.113-1.345,6.502-3.751c2.071-3.587,0.842-8.174-2.745-10.245L163.672,361.134z"/>
		<path d="M389.49,122.006l-10.392-6c-3.587-2.071-8.173-0.843-10.245,2.745c-2.071,3.587-0.842,8.174,2.745,10.245l10.392,6    c1.181,0.682,2.471,1.006,3.743,1.006c2.592,0,5.112-1.345,6.502-3.751C394.306,128.664,393.077,124.077,389.49,122.006z"/>
		<path d="M239.882,405.134c-3.587-2.071-8.174-0.843-10.245,2.745c-2.071,3.587-0.842,8.174,2.745,10.245l10.393,6    c1.181,0.682,2.471,1.006,3.743,1.006c2.592,0,5.113-1.345,6.502-3.751c2.071-3.587,0.842-8.174-2.745-10.245L239.882,405.134z"/>
		<path d="M282.633,429.817l-4.646-2.683c-3.59-2.071-8.175-0.844-10.245,2.745c-2.071,3.587-0.842,8.174,2.745,10.245l10.393,6    c1.182,0.682,2.471,1.006,3.743,1.006c2.592,0,5.113-1.345,6.502-3.751l2-3.464c2.071-3.587,0.842-8.174-2.745-10.245    C287.889,428.233,284.913,428.386,282.633,429.817z"/>
		<path d="M21.643,279.134l-10.392-6c-3.587-2.071-8.174-0.843-10.245,2.745c-2.071,3.587-0.842,8.174,2.745,10.245l10.392,6    c1.181,0.682,2.471,1.006,3.743,1.006c2.592,0,5.113-1.345,6.502-3.751C26.46,285.792,25.231,281.205,21.643,279.134z"/>
		<path d="M33.251,235.029c-3.588-2.071-8.175-0.843-10.245,2.745l-6,10.393c-2.071,3.587-0.842,8.174,2.745,10.245    c3.544,2.045,8.203,0.793,10.245-2.745l6-10.393C38.068,241.687,36.839,237.1,33.251,235.029z"/>
		<path d="M63.751,182.201c3.544,2.045,8.203,0.793,10.245-2.745l6-10.393c2.071-3.587,0.842-8.174-2.745-10.245    c-3.588-2.071-8.174-0.844-10.245,2.745l-6,10.393C58.935,175.543,60.164,180.13,63.751,182.201z"/>
		<path d="M87.461,317.134c-3.587-2.071-8.174-0.843-10.245,2.745c-2.071,3.587-0.842,8.174,2.745,10.245l10.393,6    c1.181,0.682,2.47,1.006,3.743,1.006c2.592,0,5.113-1.345,6.502-3.751c2.071-3.587,0.842-8.174-2.745-10.245L87.461,317.134z"/>
		<path d="M41.751,220.306c3.544,2.045,8.203,0.793,10.245-2.745l6-10.392c2.071-3.587,0.842-8.174-2.745-10.245    s-8.174-0.843-10.245,2.745l-6,10.392C36.935,213.648,38.164,218.235,41.751,220.306z"/>
		<path d="M55.992,315.13c2.592,0,5.113-1.345,6.502-3.751c2.071-3.587,0.842-8.174-2.745-10.245l-10.392-6    c-3.588-2.07-8.175-0.843-10.245,2.745c-2.071,3.587-0.842,8.174,2.745,10.245l10.392,6    C53.43,314.806,54.719,315.13,55.992,315.13z"/>
		<path d="M85.751,144.096c3.544,2.045,8.203,0.793,10.245-2.745l6-10.393c2.071-3.587,0.842-8.174-2.745-10.245    c-3.587-2.07-8.174-0.844-10.245,2.745l-6,10.393C80.935,137.438,82.164,142.025,85.751,144.096z"/>
		<path d="M408.879,224.422c1.181,0.682,2.471,1.006,3.743,1.006c2.592,0,5.112-1.345,6.502-3.751l6-10.392    c2.071-3.587,0.842-8.174-2.745-10.245c-3.586-2.071-8.174-0.843-10.245,2.745l-6,10.392    C404.063,217.764,405.292,222.351,408.879,224.422z"/>
		<path d="M409.703,150.996l10.393,6c1.182,0.682,2.471,1.006,3.743,1.006c2.592,0,5.113-1.345,6.502-3.751    c2.071-3.587,0.842-8.174-2.745-10.245l-10.393-6c-3.59-2.07-8.175-0.843-10.245,2.745    C404.886,144.338,406.116,148.925,409.703,150.996z"/>
		<path d="M390.134,241.89l-6,10.393c-2.071,3.587-0.842,8.174,2.745,10.245c1.182,0.682,2.471,1.006,3.743,1.006    c2.592,0,5.113-1.345,6.502-3.751l6-10.393c2.071-3.587,0.842-8.174-2.745-10.245C396.79,237.073,392.204,238.302,390.134,241.89z    "/>
		<path d="M107.751,105.99c0.494,0.285,1.01,0.494,1.532,0.656v133.132c0,4.143,3.358,7.5,7.5,7.5s7.5-3.357,7.5-7.5V92.293    c0.98-2.079,0.924-4.415,0-6.383V39.283h92.875c0.553,0.667,1.224,1.254,2.019,1.713l10.393,6    c1.181,0.682,2.471,1.006,3.743,1.006c2.592,0,5.113-1.345,6.502-3.751c0.903-1.563,1.177-3.316,0.905-4.968h188.564v88.497    c0,4.143,3.357,7.5,7.5,7.5s7.5-3.357,7.5-7.5V31.783c0-4.143-3.357-7.5-7.5-7.5H199.971c0.676-0.556,1.274-1.229,1.738-2.032    c2.071-3.587,0.842-8.174-2.745-10.245l-10.392-6c-3.588-2.07-8.174-0.843-10.245,2.745c-2.071,3.587-0.842,8.174,2.745,10.245    l9.157,5.287h-26.644l4.411-7.641c2.071-3.587,0.842-8.174-2.745-10.245c-3.588-2.071-8.174-0.843-10.245,2.745l-6,10.393    c-0.863,1.494-1.145,3.161-0.931,4.748h-31.292c-4.142,0-7.5,3.357-7.5,7.5v56.554l-4.277,7.408    C102.935,99.332,104.164,103.919,107.751,105.99z"/>
		<path d="M364.879,300.632c1.181,0.682,2.471,1.006,3.743,1.006c2.592,0,5.112-1.345,6.502-3.751l6-10.392    c2.071-3.587,0.842-8.174-2.745-10.245c-3.586-2.071-8.174-0.843-10.245,2.745l-6,10.392    C360.063,293.974,361.292,298.561,364.879,300.632z"/>
		<path d="M196.784,56.283c-4.142,0-7.5,3.357-7.5,7.5v17.409c-11.354,2.785-20.306,11.737-23.091,23.091h-17.409    c-4.142,0-7.5,3.357-7.5,7.5s3.358,7.5,7.5,7.5h17.409c2.784,11.354,11.737,20.306,23.091,23.091v17.409    c0,4.143,3.358,7.5,7.5,7.5s7.5-3.357,7.5-7.5v-17.409c11.354-2.785,20.306-11.737,23.091-23.091h17.409    c4.142,0,7.5-3.357,7.5-7.5s-3.358-7.5-7.5-7.5h-17.409c-2.784-11.354-11.737-20.306-23.091-23.091V63.783    C204.284,59.641,200.926,56.283,196.784,56.283z M213.284,111.783c0,9.098-7.402,16.5-16.5,16.5s-16.5-7.402-16.5-16.5    s7.402-16.5,16.5-16.5S213.284,102.686,213.284,111.783z"/>
		<path d="M500.784,248.283c-4.143,0-7.5,3.357-7.5,7.5c0,128.201-104.299,232.5-232.5,232.5c-75.232,0-145.24-36.106-188.951-97    h44.951c4.142,0,7.5-3.357,7.5-7.5s-3.358-7.5-7.5-7.5h-64c-4.142,0-7.5,3.357-7.5,7.5v64c0,4.143,3.358,7.5,7.5,7.5    s7.5-3.357,7.5-7.5v-46.872c46.568,64.286,120.777,102.372,200.5,102.372c66.11,0,128.263-25.744,175.009-72.491    c46.747-46.746,72.491-108.899,72.491-175.009C508.284,251.641,504.926,248.283,500.784,248.283z"/>
	</g>
</g>















</svg>
